<mxfile host="app.diagrams.net" modified="2023-11-11T19:34:31.914Z" agent="Mozilla/5.0 (Windows NT 10.0; Win64; x64) AppleWebKit/537.36 (KHTML, like Gecko) Chrome/119.0.0.0 Safari/537.36" version="22.1.0" etag="ufLAnIDdTq4HhxJpkk7S" type="github">
  <diagram name="Page-1" id="vUXy9Aiv4sHmBUodPOGs">
    <mxGraphModel>
      <root>
        <mxCell id="0" />
        <mxCell id="1" parent="0" />
      </root>
    </mxGraphModel>
  </diagram>
</mxfile>
